<?xml version="1.0" encoding="UTF-8" standalone="no"?>
<svg
   xmlns:dc="http://purl.org/dc/elements/1.1/"
   xmlns:cc="http://creativecommons.org/ns#"
   xmlns:rdf="http://www.w3.org/1999/02/22-rdf-syntax-ns#"
   xmlns:svg="http://www.w3.org/2000/svg"
   xmlns="http://www.w3.org/2000/svg"
   xmlns:sodipodi="http://sodipodi.sourceforge.net/DTD/sodipodi-0.dtd"
   xmlns:inkscape="http://www.inkscape.org/namespaces/inkscape"
   version="1.1"
   id="Capa_1"
   x="0px"
   y="0px"
   width="482.136px"
   height="482.135px"
   viewBox="0 0 482.136 482.135"
   style="enable-background:new 0 0 482.136 482.135;"
   xml:space="preserve"
   inkscape:version="0.91 r13725"
   sodipodi:docname="link.svg"><metadata
     id="metadata41"><rdf:RDF><cc:Work
         rdf:about=""><dc:format>image/svg+xml</dc:format><dc:type
           rdf:resource="http://purl.org/dc/dcmitype/StillImage" /></cc:Work></rdf:RDF></metadata><defs
     id="defs39" /><sodipodi:namedview
     pagecolor="#ffffff"
     bordercolor="#666666"
     borderopacity="1"
     objecttolerance="10"
     gridtolerance="10"
     guidetolerance="10"
     inkscape:pageopacity="0"
     inkscape:pageshadow="2"
     inkscape:window-width="906"
     inkscape:window-height="545"
     id="namedview37"
     showgrid="false"
     inkscape:zoom="0.48948945"
     inkscape:cx="241.06799"
     inkscape:cy="241.0675"
     inkscape:window-x="219"
     inkscape:window-y="453"
     inkscape:window-maximized="0"
     inkscape:current-layer="Capa_1" /><g
     id="g3"><path
       d="M455.482,198.184L326.829,326.832c-35.535,35.54-93.108,35.54-128.646,0l-42.881-42.886l42.881-42.876l42.884,42.876   c11.845,11.822,31.064,11.846,42.886,0l128.644-128.643c11.816-11.831,11.816-31.066,0-42.9l-42.881-42.881   c-11.822-11.814-31.064-11.814-42.887,0l-45.928,45.936c-21.292-12.531-45.491-17.905-69.449-16.291l72.501-72.526   c35.535-35.521,93.136-35.521,128.644,0l42.886,42.881C491.018,105.045,491.018,162.663,455.482,198.184z M201.206,366.698   l-45.903,45.9c-11.845,11.846-31.064,11.817-42.881,0l-42.884-42.881c-11.845-11.821-11.845-31.041,0-42.886l128.646-128.648   c11.819-11.814,31.069-11.814,42.884,0l42.886,42.886l42.876-42.886l-42.876-42.881c-35.54-35.521-93.113-35.521-128.65,0   L26.655,283.946c-35.538,35.545-35.538,93.146,0,128.652l42.883,42.882c35.51,35.54,93.11,35.54,128.646,0l72.496-72.499   C246.724,384.578,222.588,379.197,201.206,366.698z"
       id="path5" /></g><g
     id="g7" /><g
     id="g9" /><g
     id="g11" /><g
     id="g13" /><g
     id="g15" /><g
     id="g17" /><g
     id="g19" /><g
     id="g21" /><g
     id="g23" /><g
     id="g25" /><g
     id="g27" /><g
     id="g29" /><g
     id="g31" /><g
     id="g33" /><g
     id="g35" /><path
     style="fill:#008000"
     d="M 118.287,479.6036 C 92.71054,474.3606 83.660243,468.10063 45.602483,429.3287 12.836674,395.94804 6.3138593,385.86646 2.2923642,362.38914 c -2.98676036,-17.4366 0.2809203,-37.4909 8.9442688,-54.8925 5.388678,-10.82394 17.382149,-23.75358 81.201778,-87.54005 68.452269,-68.41671 76.106709,-75.43066 89.179879,-81.7178 13.68264,-6.58023 15.31587,-6.87743 37.79449,-6.87743 22.25341,0 24.23175,0.34949 37.46938,6.61911 11.3286,5.36547 19.17776,11.73354 41.44288,33.62289 l 27.46737,27.00378 -20.42095,20.42094 -20.42095,20.42095 -24.31276,-23.80011 c -22.68709,-22.20872 -27.57898,-25.59294 -38.16056,-26.39955 -15.01286,-1.1444 -13.42645,-2.43546 -86.39084,70.30679 -38.601499,38.48397 -71.498257,72.45335 -73.103912,75.48751 -3.808292,7.19641 -3.714063,18.74945 0.220553,27.04103 1.726956,3.63928 14.367678,17.70095 28.090493,31.24815 27.145116,26.79772 34.628416,31.03844 49.779586,28.20972 6.50939,-1.21529 12.43319,-5.99504 34.51417,-27.84845 18.60304,-18.41132 27.30359,-25.73383 28.79939,-24.23803 4.47135,4.47136 32.50309,12.52939 48.18874,13.85238 l 16.33878,1.37807 -40.60521,39.83742 c -43.21877,42.40161 -51.96978,48.75541 -74.44739,54.05371 -14.25697,3.36056 -22.96112,3.61158 -35.57455,1.02593 z"
     id="path3369"
     inkscape:connector-curvature="0" /><path
     style="fill:#008000"
     d="m 242.82196,350.17123 c -20.24148,-4.91756 -29.59508,-11.2439 -58.13925,-39.32269 l -27.57975,-27.13011 20.39429,-20.51147 20.39429,-20.51147 22.50755,22.26963 c 28.82896,28.52421 37.25563,32.72295 53.52947,26.67199 6.51794,-2.4235 140.29422,-134.82756 144.80535,-143.32 3.44988,-6.49456 3.81628,-19.46715 0.7757,-27.46446 -2.44516,-6.43126 -44.6878,-50.095323 -54.02627,-55.844199 -3.37086,-2.075141 -8.88681,-3.991653 -12.25767,-4.258915 -16.38139,-1.298812 -16.94228,-0.964351 -45.03834,26.856436 l -26.99065,26.726208 -7.90882,-4.02845 c -11.67165,-5.94511 -27.34627,-10.1622 -43.79743,-11.783261 l -14.57466,-1.43615 36.46783,-36.716965 c 20.05731,-20.194333 41.72742,-40.182314 48.1558,-44.417739 24.85275,-16.37456649 58.95159,-18.951863 86.0721,-6.5055949 11.83948,5.4334319 18.77364,11.1371729 44.94479,36.9696529 17.02,16.799761 33.89435,35.431017 37.49854,41.402794 12.01143,19.901733 15.87676,46.314073 10.00514,68.366293 -6.20921,23.3201 -10.94962,29.0336 -87.95283,106.00763 -78.36978,78.34012 -82.62386,81.80863 -107.54005,87.68175 -15.44938,3.64163 -25.67005,3.71855 -39.74513,0.29909 z"
     id="path3371"
     inkscape:connector-curvature="0" /></svg>